# xmcd CD database file
#
# Track frame offsets:
#	150
#	19648
#	40767
#	62683
#	85240
#	107112
#	129823
#	149790
#
# Disc length: 2195 seconds
#
# Revision: 1
# Processed by: cddbd v1.5.2PL0 Copyright (c) Steve Scherf et al.
# Submitted via: CDex 1.70beta3
#
DISCID=66089108
DTITLE=南波志帆 - ごめんね、私。
DYEAR=2010
DGENRE=Pop
TTITLE0=ごめんね、私。
TTITLE1=スローモーション
TTITLE2=会いたい、会いたくない
TTITLE3=お針子の唄
TTITLE4=シャイニングスター
TTITLE5=Bless You, Girls!
TTITLE6=楽園にて
TTITLE7=光の街
EXTD=YEAR: 2010
EXTT0=
EXTT1=
EXTT2=
EXTT3=
EXTT4=
EXTT5=
EXTT6=
EXTT7=
PLAYORDER=
